<svg width="46" height="35" viewBox="0 0 46 35" fill="none" xmlns="http://www.w3.org/2000/svg">
<path d="M45.8671 15.57C41.1333 11.8661 39.2827 10.2404 36.227 10.2396L0 10.2292C4.52744 13.6868 7.23817 15.56 9.4118 15.5606L45.8671 15.57Z" fill="#018755"/>
<path d="M3.15088 24.8052C9.16145 24.8429 11.6256 25.0058 14.0386 23.1311L36.1948 5.91716C38.9495 7.06866 40.3192 7.60157 42.949 8.82491C42.7079 6.33592 41.3007 1.14802 40.4718 0.17282C39.0541 -0.402567 25.1707 0.604049 23.1285 1.07489C22.6398 1.18755 30.3635 4.05373 30.3331 4.07695L3.15088 24.8052Z" fill="#018755"/>
<path d="M42.7156 24.805C36.705 24.8428 34.2468 24.9981 31.8279 23.1309L3.15088 0.994385C8.84749 1.02551 12.1379 1.20003 13.8585 2.52827L42.7156 24.805Z" fill="#018755"/>
<path d="M30.9255 34.8869L15.7622 34.8955C16.5455 30.066 21.2747 20.859 23.0178 18.458C24.9868 20.8183 30.1861 29.984 30.9255 34.8869Z" fill="#018755"/>
</svg>
