<?xml version="1.0" encoding="utf-8"?>
<!-- Generator: Adobe Illustrator 27.0.0, SVG Export Plug-In . SVG Version: 6.00 Build 0)  -->
<svg version="1.1" id="Layer_1" xmlns="http://www.w3.org/2000/svg" xmlns:xlink="http://www.w3.org/1999/xlink" x="0px" y="0px"
	 viewBox="0 0 1080 1080" style="enable-background:new 0 0 1080 1080;" xml:space="preserve">
<style type="text/css">
	.st0{fill:#FFFFFF;}
</style>
<g>
	<g>
		<g>
			<path class="st0" d="M539.32,0c35.77,4.19,60.08,21.59,68.02,57.02c10.04,44.78,17.49,90.17,28.36,134.73
				C679.69,371.99,742.55,428.4,925.7,455.03c32.9,4.78,65.66,10.87,98.2,17.72c36.32,7.64,54.4,32.95,54.51,68.25
				c0.12,35.98-20.36,59.62-55.83,66.84c-34.11,6.94-68.76,11.15-103.13,16.81c-197.74,32.57-258.85,93.28-293.18,291.52
				c-5.14,29.69-8.8,59.64-14.14,89.29c-7.34,40.79-26.07,74.35-72.21,74.55c-46.24,0.2-64.25-33.87-73.26-74.03
				c-14.19-63.29-25.88-127.31-43.58-189.62c-26.54-93.48-90.56-150.22-185.07-171.54c-47.87-10.8-96.27-19.23-144.41-28.83
				c-12.42-2.47-24.81-5.11-37.14-7.97c-35.94-8.33-54.86-32.6-54.88-67.92C1.57,504.5,21.13,479.8,57.08,472.9
				c48.2-9.25,96.66-17.33,145.24-24.31c141.62-20.34,217.24-105.96,242.21-242.49c8.84-48.33,17.61-96.67,26.52-144.98
				C478.1,22.91,502.8,4.57,539.32,0z"/>
		</g>
	</g>
</g>
</svg>
