<?xml version="1.0" encoding="utf-8"?>
<!-- Generator: Adobe Illustrator 27.0.0, SVG Export Plug-In . SVG Version: 6.00 Build 0)  -->
<svg version="1.1" id="Layer_1" xmlns="http://www.w3.org/2000/svg" xmlns:xlink="http://www.w3.org/1999/xlink" x="0px" y="0px"
	 viewBox="0 0 2592.69 389.34" style="enable-background:new 0 0 2592.69 389.34;" xml:space="preserve">
<style type="text/css">
	.st0{fill:#FFFFFF;}
</style>
<g>
	<g>
		<path class="st0" d="M636.64,331.56V121.78c0-8,4.67-15.04,14-21.11c9.33-6.07,17.26-9.11,23.78-9.11v198.23
			c0,32.29-8.67,56.81-26,73.56c-17.33,16.73-40.52,25.11-69.56,25.11c-6.22,0-13.11-1.33-20.67-4s-13.41-6.67-17.55-12
			c0-4.44,3.4-9.11,10.22-14c6.81-4.89,13.18-7.63,19.11-8.22c7.4,11.85,18.07,17.78,32,17.78c10.67,0,19.11-3.19,25.34-9.56
			C633.53,352.07,636.64,343.12,636.64,331.56z M670.87,36.89c-4.44,4.45-9.78,6.67-16,6.67c-6.22,0-11.56-2.22-16-6.67
			c-4.45-4.44-6.67-9.78-6.67-16c0-6.22,2.22-11.56,6.67-16c4.44-4.45,9.78-6.67,16-6.67c6.22,0,11.56,2.22,16,6.67
			c4.45,4.44,6.67,9.78,6.67,16C677.53,27.11,675.31,32.45,670.87,36.89z"/>
		<path class="st0" d="M770.42,331.56V121.78c0-8,4.67-15.04,14-21.11c9.33-6.07,17.26-9.11,23.78-9.11v198.23
			c0,32.29-8.67,56.81-26,73.56c-17.33,16.73-40.52,25.11-69.56,25.11c-6.22,0-13.11-1.33-20.67-4s-13.41-6.67-17.55-12
			c0-4.44,3.4-9.11,10.22-14c6.81-4.89,13.18-7.63,19.11-8.22c7.4,11.85,18.07,17.78,32,17.78c10.67,0,19.11-3.19,25.34-9.56
			C767.31,352.07,770.42,343.12,770.42,331.56z"/>
		<path class="st0" d="M1016.21,272.89v28.45h-10.67c-11.86,0-23.41-3.18-34.67-9.56c-11.26-6.37-20.89-14.15-28.89-23.33v21.33
			c0,32.29-8.67,56.81-26,73.56c-17.33,16.73-40.52,25.11-69.56,25.11c-17.78,0-29.93-3.85-36.44-11.56
			c-1.19-1.19-1.78-2.67-1.78-4.45c0-4.44,3.4-9.11,10.22-14c6.81-4.89,13.18-7.63,19.11-8.22c7.4,11.85,18.07,17.78,32,17.78
			c10.67-0.3,19.11-3.56,25.34-9.78c6.22-6.22,9.33-15.11,9.33-26.67V135.11c0-8,4.67-15.04,14-21.11
			c9.33-6.07,17.26-9.11,23.78-9.11v140.89c4.45,7.71,11.4,14.15,20.89,19.33c9.48,5.19,19.84,7.78,31.11,7.78H1016.21z
			 M938.43,50.22c-4.44,4.45-9.78,6.67-16,6.67c-6.23,0-11.56-2.22-16-6.67c-4.45-4.44-6.67-9.78-6.67-16c0-6.22,2.22-11.56,6.67-16
			c4.44-4.45,9.78-6.67,16-6.67c6.22,0,11.56,2.22,16,6.67c4.45,4.44,6.67,9.78,6.67,16C945.1,40.44,942.88,45.78,938.43,50.22z"/>
		<path class="st0" d="M1019.76,381.78c-4.45,4.45-9.78,6.67-16,6.67c-6.22,0-11.56-2.22-16-6.67c-4.45-4.44-6.67-9.78-6.67-16
			c0-6.22,2.22-11.56,6.67-16c4.44-4.45,9.78-6.67,16-6.67c6.22,0,11.56,2.22,16,6.67c4.45,4.44,6.67,9.78,6.67,16
			C1026.43,372,1024.21,377.34,1019.76,381.78z M1126.88,91.55v144c0,19.86-4.38,35.78-13.11,47.78c-8.74,12-21.7,18-38.89,18
			h-63.11v-28.45h44c22.22,0,33.33-13.03,33.33-39.11v-112c0-8,4.66-15.04,14-21.11C1112.43,94.6,1120.35,91.55,1126.88,91.55z
			 M1089.54,381.78c-4.45,4.45-9.78,6.67-16,6.67c-6.22,0-11.56-2.22-16-6.67c-4.45-4.44-6.67-9.78-6.67-16
			c0-6.22,2.22-11.56,6.67-16c4.44-4.45,9.78-6.67,16-6.67c6.22,0,11.56,2.22,16,6.67c4.45,4.44,6.67,9.78,6.67,16
			C1096.21,372,1093.99,377.34,1089.54,381.78z"/>
		<path class="st0" d="M1333.11,80.45v155.11c0,19.86-4.38,35.78-13.11,47.78c-8.74,12-21.71,18-38.89,18h-42.22
			c-13.93,0-26.44-3.92-37.55-11.78c-11.11-7.85-19.49-17.56-25.11-29.11c-2.38-5.03-4.16-10.22-5.34-15.55c0-2.67,1.33-4,4-4
			c2.37,0.3,6.22,4.6,11.56,12.89c0.89,1.49,1.63,2.67,2.23,3.56c7.11,10.37,20,15.55,38.67,15.55h19.56
			c-52.75-149.62-80.89-226.67-84.45-231.11c0-7.4,3.85-14.59,11.56-21.55c7.7-6.96,14.51-11.18,20.45-12.67l79.11,265.33
			c5.04,0,9.18-0.89,12.45-2.67c3.26-1.77,5.48-4.29,6.66-7.55c1.19-3.26,1.92-5.93,2.23-8c0.29-2.07,0.44-4.89,0.44-8.45V60
			c0-17.48,3.56-31.85,10.67-43.11C1313.11,5.63,1324.22,0,1339.33,0c14.51,0,24.89,4.74,31.11,14.22
			c6.22,9.49,9.48,20.44,9.78,32.89l-9.33,5.34c-0.59-13.93-6.67-20.89-18.22-20.89c-4.74,0-8.52,1.41-11.33,4.22
			c-2.82,2.82-4.74,7.11-5.78,12.89c-1.04,5.78-1.71,10.67-2,14.67C1333.25,67.33,1333.11,73.04,1333.11,80.45z"/>
		<path class="st0" d="M1557.56,272.89v28.45h-63.11c-17.19,0-30.15-6-38.89-18c-8.74-12-13.11-27.92-13.11-47.78V29.78
			c0-8,4.81-14.96,14.44-20.89c9.63-5.92,17.7-8.89,24.23-8.89v233.78c0,26.08,11.11,39.11,33.33,39.11H1557.56z"/>
		<path class="st0" d="M1553.11,272.89h209.34c2.37-12.44,3.55-23.4,3.55-32.89c0-34.96-10.15-63.11-30.44-84.45
			c-20.3-21.33-45.12-32-74.45-32c-33.78,0-62.97,8.89-87.56,26.67c-0.6,0.6-1.04,0.89-1.33,0.89c-1.19,0-1.78-1.63-1.78-4.89
			c0-3.56,1.18-10.37,3.56-20.45c1.18-1.48,6-8.81,14.44-22c8.44-13.18,16.66-25.18,24.66-36c8-10.82,18.67-21.12,32-30.89
			s26.52-14.67,39.55-14.67s25.56,3.33,37.56,10c12,6.67,21.62,14.6,28.89,23.78c7.25,9.19,13.11,18,17.55,26.45
			c4.45,8.45,6.67,15.19,6.67,20.22c0,1.78-1.04,2.96-3.11,3.56c-1.78,0-5.19-3.11-10.22-9.33l-16.44-20
			c-6.22-7.4-14.37-14.15-24.45-20.22c-10.07-6.07-20.3-9.11-30.67-9.11c-12.44,0-25.26,6.45-38.44,19.34
			c-13.19,12.89-24.38,27.33-33.56,43.33c14.81-5.03,32-7.56,51.56-7.56c38.51,0,70.96,13.41,97.34,40.22
			c26.37,26.82,39.55,60.52,39.55,101.11c0,21.04-3.55,40.15-10.67,57.33h-243.11V272.89z"/>
		<path class="st0" d="M2097.12,301.34h-64c-2.38,28.14-12.3,50.14-29.78,66c-17.49,15.85-37.78,23.78-60.89,23.78
			c-31.11,0-55.86-5.34-74.23-16c0-4.44,2.45-10.22,7.34-17.33c4.89-7.11,10-11.11,15.33-12c4.14,7.4,10.22,13.25,18.22,17.55
			c8,4.29,14.51,6.81,19.55,7.56c5.04,0.73,9.63,1.11,13.78,1.11c13.92,0,26.29-5.27,37.11-15.78
			c10.81-10.52,16.22-22.74,16.22-36.67v-18.22h-48.01c-27.85,0-49.41-8.67-64.66-26c-15.26-17.33-22.89-38.29-22.89-62.89
			c0-30.52,8.74-57.33,26.22-80.44c17.48-23.11,40.59-34.67,69.34-34.67c26.37,0,45.92,8,58.67,24c12.74,16,19.11,36.6,19.11,61.77
			v89.78h63.56V301.34z M1995.79,272.89V160c0-13.03-3.63-24.59-10.89-34.67c-7.27-10.07-17.7-15.11-31.34-15.11
			c-10.38,0-19.33,2.74-26.89,8.22c-7.56,5.49-13.26,12.82-17.11,22c-3.85,9.18-6.67,18.59-8.44,28.22
			c-1.78,9.63-2.67,19.49-2.67,29.55c0,25.19,4.44,43.93,13.33,56.22c8.89,12.3,23.26,18.44,43.11,18.44H1995.79z"/>
		<path class="st0" d="M2207.79-0.45v236c0,19.86-4.38,35.78-13.11,47.78c-8.74,12-21.7,18-38.89,18h-63.11v-28.45h44
			c22.22,0,33.33-13.03,33.33-39.11v-204c0-8,4.66-15.04,14-21.11C2193.34,2.6,2201.27-0.45,2207.79-0.45z"/>
		<path class="st0" d="M2393.12,0v241.78c0,17.77-3.49,31.78-10.44,42c-6.97,10.22-16.38,16.08-28.23,17.55V30.22
			c0-8,4.74-15.03,14.22-21.11C2378.16,3.04,2386.3,0,2393.12,0z"/>
		<path class="st0" d="M2537.57,301.34h-95.56v-28.45h83.11c19.56,0,29.34-9.03,29.34-27.11v-62.22c0-24.89-2.45-42.96-7.34-54.22
			c-4.89-11.26-14.15-16.89-27.78-16.89c-18.37,0-31.27,7.71-38.67,23.12c-2.67,0.88-5.63,1.33-8.89,1.33
			c-9.49,0-15.41-3.11-17.77-9.33c1.48-5.92,8.45-12.07,20.89-18.44c12.44-6.37,27.26-9.56,44.44-9.56
			c24.89,0,43.33,6.74,55.33,20.22c12,13.48,18,34,18,61.55v75.11C2592.69,286.38,2574.31,301.34,2537.57,301.34z M2536.24,44.44
			c-4.45,4.45-9.78,6.67-16,6.67c-6.22,0-11.56-2.22-16-6.67c-4.44-4.44-6.67-9.78-6.67-16c0-6.22,2.23-11.56,6.67-16
			c4.45-4.45,9.78-6.67,16-6.67c6.23,0,11.56,2.22,16,6.67c4.44,4.44,6.67,9.78,6.67,16C2542.91,34.67,2540.68,40,2536.24,44.44z"/>
	</g>
	<g>
		<path class="st0" d="M202.67,280.67H67.56l-24.89,68.89H0l112.01-308h46.66l111.56,308h-42.67L202.67,280.67z M191.12,247.78
			l-56-156.44l-56,156.44H191.12z"/>
		<path class="st0" d="M359.56,39.78v309.78h-40.44V39.78H359.56z"/>
	</g>
</g>
</svg>
