<svg width="378" height="666" viewBox="0 0 378 666" fill="none" xmlns="http://www.w3.org/2000/svg">
<path d="M-81.9727 28.8311C-40.7333 16.2024 239.606 -10.7971 268.232 4.63581C284.97 30.7931 313.384 169.942 318.252 236.701C265.15 203.889 237.492 189.594 181.869 158.709L69.5693 274.603L182.516 274.646C244.218 274.669 281.585 318.272 377.173 417.619L74.3184 417.514L313.543 662.816C192.174 663.828 142.535 667.995 93.6914 617.914L-85.2793 434.406L-265.521 620.418C-314.245 670.702 -364.004 666.332 -485.372 665.32L-240.621 417.405L-358.952 417.365C-402.843 417.35 -457.58 367.107 -549 274.369L-241.246 274.484L-485.369 24.171C-370.34 25.0058 -303.899 29.6867 -269.156 65.3126L-82.2402 256.978L63.5049 109.352C64.1197 108.729 -91.8404 31.853 -81.9727 28.8311Z" fill="black" fill-opacity="0.05"/>
</svg>
