<svg width="378" height="666" viewBox="0 0 378 666" fill="none" xmlns="http://www.w3.org/2000/svg">
<path d="M467.895 28.8311C509.133 16.2024 789.473 -10.7971 818.1 4.63582C834.838 30.7926 863.252 169.941 868.12 236.7C815.018 203.888 787.36 189.594 731.737 158.709L619.438 274.603L732.383 274.646C794.085 274.669 831.453 318.272 927.041 417.619L624.186 417.514L863.41 662.816C742.042 663.828 692.403 667.995 643.56 617.914L464.589 434.405L284.347 620.418C235.622 670.702 185.864 666.332 64.4961 665.32L309.247 417.405L190.916 417.365C147.025 417.35 92.2885 367.107 0.868164 274.369L308.622 274.484L64.498 24.171C179.527 25.0058 245.969 29.6867 280.712 65.3126L467.628 256.978L613.373 109.352C613.988 108.729 458.028 31.8537 467.895 28.8311Z" fill="black" fill-opacity="0.05"/>
</svg>
